<svg xmlns="http://www.w3.org/2000/svg" xmlns:xlink="http://www.w3.org/1999/xlink" width="500" zoomAndPan="magnify" viewBox="0 0 375 374.999991" height="500" preserveAspectRatio="xMidYMid meet" version="1.0"><defs><clipPath id="fdfedf0179"><path d="M 110 107 L 289 107 L 289 270.839844 L 110 270.839844 Z M 110 107 " clip-rule="nonzero"/></clipPath><clipPath id="6d564018a4"><path d="M 86 69.089844 L 264 69.089844 L 264 225 L 86 225 Z M 86 69.089844 " clip-rule="nonzero"/></clipPath><clipPath id="8d26a5677c"><path d="M 172 69.089844 L 375 69.089844 L 375 266 L 172 266 Z M 172 69.089844 " clip-rule="nonzero"/></clipPath><clipPath id="137bd5f2e0"><path d="M 0 74 L 203 74 L 203 270.839844 L 0 270.839844 Z M 0 74 " clip-rule="nonzero"/></clipPath></defs><g clip-path="url(#fdfedf0179)"><path fill="#a9abae" d="M 273.019531 255.46875 L 258.65625 255.46875 L 110.804688 107.617188 L 110.804688 129.246094 L 237.027344 255.46875 L 252.324219 270.761719 L 288.316406 270.761719 L 288.316406 203.332031 L 273.019531 188.035156 Z M 273.019531 255.46875 " fill-opacity="1" fill-rule="nonzero"/></g><g clip-path="url(#6d564018a4)"><path fill="#a9abae" d="M 101.980469 84.429688 L 123.011719 84.429688 L 263.214844 224.613281 L 263.214844 202.988281 L 129.359375 69.132812 L 86.683594 69.132812 L 86.683594 131.507812 L 101.980469 146.804688 Z M 101.980469 84.429688 " fill-opacity="1" fill-rule="nonzero"/></g><g clip-path="url(#8d26a5677c)"><path fill="#7ed957" d="M 348.03125 252.746094 C 340.234375 252.746094 333.914062 246.425781 333.914062 238.628906 C 333.914062 236.253906 334.5 234.015625 335.535156 232.050781 C 337.902344 227.566406 342.609375 224.511719 348.03125 224.511719 C 348.382812 224.511719 348.730469 224.523438 349.074219 224.550781 C 356.382812 225.082031 362.148438 231.183594 362.148438 238.628906 C 362.148438 246.425781 355.828125 252.746094 348.03125 252.746094 Z M 338.503906 213.390625 L 273.019531 147.90625 L 209.554688 84.429688 L 273.019531 84.429688 L 273.019531 134.460938 L 288.316406 149.742188 L 288.316406 69.132812 L 172.632812 69.132812 L 187.929688 84.429688 L 273.019531 169.535156 L 326.234375 222.75 C 322.984375 227.203125 321.0625 232.691406 321.0625 238.628906 C 321.0625 253.523438 333.136719 265.59375 348.03125 265.59375 C 362.925781 265.59375 375 253.519531 375 238.628906 C 375 223.734375 362.925781 211.660156 348.03125 211.660156 C 344.675781 211.660156 341.464844 212.273438 338.503906 213.390625 Z M 338.503906 213.390625 " fill-opacity="1" fill-rule="evenodd"/></g><g clip-path="url(#137bd5f2e0)"><path fill="#7ed957" d="M 26.96875 87.152344 C 34.765625 87.152344 41.085938 93.472656 41.085938 101.269531 C 41.085938 103.644531 40.5 105.878906 39.464844 107.84375 C 37.097656 112.328125 32.390625 115.382812 26.96875 115.382812 C 26.617188 115.382812 26.269531 115.371094 25.925781 115.34375 C 18.617188 114.8125 12.851562 108.710938 12.851562 101.265625 C 12.851562 93.46875 19.171875 87.148438 26.96875 87.148438 Z M 36.496094 126.503906 L 101.980469 191.988281 L 165.445312 255.46875 L 101.980469 255.46875 L 101.980469 205.433594 L 86.683594 190.152344 L 86.683594 270.761719 L 202.367188 270.761719 L 187.070312 255.46875 L 101.980469 170.359375 L 48.765625 117.148438 C 52.015625 112.691406 53.9375 107.203125 53.9375 101.269531 C 53.9375 86.375 41.863281 74.300781 26.96875 74.300781 C 12.074219 74.300781 0 86.375 0 101.269531 C 0 116.164062 12.074219 128.234375 26.96875 128.234375 C 30.324219 128.234375 33.535156 127.625 36.5 126.503906 Z M 36.496094 126.503906 " fill-opacity="1" fill-rule="evenodd"/></g></svg>